<?xml version="1.0" encoding="UTF-8"?>
<svg xmlns="http://www.w3.org/2000/svg" xmlns:xlink="http://www.w3.org/1999/xlink" width="127px" height="24px" viewBox="0 0 127 24" version="1.1">
<g id="surface1">
<path style=" stroke:none;fill-rule:nonzero;fill:rgb(0%,0%,0%);fill-opacity:1;" d="M 0 7.523438 L 0 15.191406 L 3.191406 14.429688 C 10.917969 12.617188 20.746094 7.761719 24.695312 3.761719 C 26.289062 2.191406 26.207031 2.238281 23.015625 4.191406 L 19.738281 6.191406 L 10.917969 3.285156 C 6.046875 1.667969 1.597656 0.285156 1.09375 0.144531 C 0.253906 -0.046875 0 1.617188 0 7.523438 Z M 0 7.523438 "/>
<path style=" stroke:none;fill-rule:nonzero;fill:rgb(0%,0%,0%);fill-opacity:1;" d="M 42.835938 4 C 42.835938 4.144531 45.105469 6.285156 47.878906 8.761719 C 52.832031 13.191406 52.917969 13.382812 52.917969 16.667969 L 52.917969 20 L 59.636719 20 L 59.636719 16.761719 C 59.636719 13.570312 59.71875 13.429688 65.097656 8.667969 L 70.554688 3.808594 L 66.945312 3.808594 C 63.5 3.808594 63.332031 3.90625 60.054688 6.953125 C 56.277344 10.429688 56.527344 10.476562 51.910156 6 C 49.808594 3.953125 49.390625 3.808594 46.195312 3.808594 C 44.347656 3.808594 42.835938 3.90625 42.835938 4 Z M 42.835938 4 "/>
<path style=" stroke:none;fill-rule:nonzero;fill:rgb(0%,0%,0%);fill-opacity:1;" d="M 72.234375 5.429688 L 72.234375 7.09375 L 76.6875 7.238281 L 81.054688 7.382812 L 81.308594 13.667969 L 81.558594 20 L 87.355469 20 L 87.355469 7.144531 L 95.753906 7.144531 L 95.753906 3.808594 L 72.234375 3.808594 Z M 72.234375 5.429688 "/>
<path style=" stroke:none;fill-rule:nonzero;fill:rgb(0%,0%,0%);fill-opacity:1;" d="M 105.917969 5.09375 C 104.992188 6.144531 98.105469 15.332031 95.164062 19.382812 C 94.828125 19.808594 95.671875 20 97.9375 20 C 100.960938 20 101.296875 19.855469 102.640625 18.09375 L 104.070312 16.191406 L 115.660156 16.191406 L 117.003906 18.09375 C 118.179688 19.855469 118.515625 20 121.625 20 L 124.984375 20 L 118.9375 12 L 112.890625 4.046875 L 109.949219 3.90625 C 107.429688 3.761719 106.839844 3.953125 105.917969 5.09375 Z M 113.308594 12.953125 C 113.394531 13.191406 111.882812 13.332031 110.03125 13.332031 C 106.167969 13.332031 106.085938 13.09375 108.101562 10.046875 L 109.527344 7.90625 L 111.378906 10.285156 C 112.46875 11.570312 113.308594 12.761719 113.308594 12.953125 Z M 113.308594 12.953125 "/>
<path style=" stroke:none;fill-rule:nonzero;fill:rgb(0%,0%,0%);fill-opacity:1;" d="M 22.679688 11.617188 C 22.679688 14.144531 22.929688 16.191406 23.183594 16.191406 C 23.433594 16.191406 24.777344 15.808594 26.121094 15.382812 C 28.472656 14.570312 28.640625 14.382812 28.390625 11.761719 C 28.136719 9.238281 27.886719 8.90625 25.449219 8.046875 L 22.679688 7.046875 Z M 22.679688 11.617188 "/>
<path style=" stroke:none;fill-rule:nonzero;fill:rgb(0%,0%,0%);fill-opacity:1;" d="M 17.808594 10.761719 C 15.371094 12.332031 15.117188 12.761719 15.117188 15.761719 L 15.117188 19 L 18.058594 18.046875 L 21 17.046875 L 21 13.046875 C 21 10.855469 20.914062 9.046875 20.746094 9.046875 C 20.578125 9.046875 19.234375 9.808594 17.808594 10.761719 Z M 17.808594 10.761719 "/>
<path style=" stroke:none;fill-rule:nonzero;fill:rgb(0%,0%,0%);fill-opacity:1;" d="M 30.238281 11.714844 C 30.238281 12.90625 30.488281 13.808594 30.910156 13.714844 C 37.210938 11.953125 37.210938 11.90625 33.179688 10.523438 L 30.238281 9.570312 Z M 30.238281 11.714844 "/>
<path style=" stroke:none;fill-rule:nonzero;fill:rgb(0%,0%,0%);fill-opacity:1;" d="M 10.332031 14.476562 C 7.726562 15.429688 7.558594 15.617188 7.558594 18.476562 L 7.558594 21.476562 L 10.164062 20.617188 C 13.4375 19.570312 13.605469 19.332031 13.269531 16.09375 L 13.019531 13.476562 Z M 10.332031 14.476562 "/>
<path style=" stroke:none;fill-rule:nonzero;fill:rgb(0%,0%,0%);fill-opacity:1;" d="M 2.773438 17 C 0.0859375 17.617188 0 17.714844 0 20.476562 C 0 23.617188 0.839844 24 4.117188 22.476562 C 5.710938 21.808594 5.964844 21.238281 5.710938 19 L 5.460938 16.332031 Z M 2.773438 17 "/>
</g>
</svg>
